<?xml version="1.0" encoding="UTF-8" standalone="no"?>
<!-- Created with Inkscape (http://www.inkscape.org/) -->

<svg
   xmlns:dc="http://purl.org/dc/elements/1.1/"
   xmlns:cc="http://creativecommons.org/ns#"
   xmlns:rdf="http://www.w3.org/1999/02/22-rdf-syntax-ns#"
   xmlns:svg="http://www.w3.org/2000/svg"
   xmlns="http://www.w3.org/2000/svg"
   xmlns:xlink="http://www.w3.org/1999/xlink"
   xmlns:sodipodi="http://sodipodi.sourceforge.net/DTD/sodipodi-0.dtd"
   xmlns:inkscape="http://www.inkscape.org/namespaces/inkscape"
   width="1782.1444"
   height="325.2128"
   viewBox="0 0 471.5257 86.045889"
   version="1.1"
   id="svg1247"
   inkscape:version="0.92.3 (2405546, 2018-03-11)"
   sodipodi:docname="Mega-5X-logo.svg">
  <defs
     id="defs1241">
    <linearGradient
       inkscape:collect="always"
       id="linearGradient1516">
      <stop
         style="stop-color:#7f070f;stop-opacity:1;"
         offset="0"
         id="stop1512" />
      <stop
         style="stop-color:#ff0f1f;stop-opacity:1"
         offset="1"
         id="stop1514" />
    </linearGradient>
    <linearGradient
       inkscape:collect="always"
       xlink:href="#linearGradient1516"
       id="linearGradient1518"
       x1="395.60841"
       y1="232.81454"
       x2="483.48828"
       y2="232.81454"
       gradientUnits="userSpaceOnUse" />
  </defs>
  <sodipodi:namedview
     id="base"
     pagecolor="#ffffff"
     bordercolor="#666666"
     borderopacity="1.0"
     inkscape:pageopacity="0.0"
     inkscape:pageshadow="2"
     inkscape:zoom="0.5"
     inkscape:cx="929.92098"
     inkscape:cy="178.40514"
     inkscape:document-units="px"
     inkscape:current-layer="layer1"
     showgrid="true"
     units="px"
     fit-margin-top="5"
     fit-margin-left="5"
     fit-margin-right="5"
     fit-margin-bottom="5">
    <inkscape:grid
       type="xygrid"
       id="grid1249"
       originx="-13.285497"
       originy="-9.2593568" />
  </sodipodi:namedview>
  <metadata
     id="metadata1244">
    <rdf:RDF>
      <cc:Work
         rdf:about="">
        <dc:format>image/svg+xml</dc:format>
        <dc:type
           rdf:resource="http://purl.org/dc/dcmitype/StillImage" />
        <dc:title></dc:title>
      </cc:Work>
    </rdf:RDF>
  </metadata>
  <g
     inkscape:label="Calque 1"
     inkscape:groupmode="layer"
     id="layer1"
     transform="translate(-13.285497,-201.69475)">
    <path
       style="color:#000000;font-style:normal;font-variant:normal;font-weight:normal;font-stretch:normal;font-size:medium;line-height:normal;font-family:sans-serif;font-variant-ligatures:normal;font-variant-position:normal;font-variant-caps:normal;font-variant-numeric:normal;font-variant-alternates:normal;font-feature-settings:normal;text-indent:0;text-align:start;text-decoration:none;text-decoration-line:none;text-decoration-style:solid;text-decoration-color:#000000;letter-spacing:normal;word-spacing:normal;text-transform:none;writing-mode:lr-tb;direction:ltr;text-orientation:mixed;dominant-baseline:auto;baseline-shift:baseline;text-anchor:start;white-space:normal;shape-padding:0;clip-rule:nonzero;display:inline;overflow:visible;visibility:visible;opacity:1;isolation:auto;mix-blend-mode:normal;color-interpolation:sRGB;color-interpolation-filters:linearRGB;solid-color:#000000;solid-opacity:1;vector-effect:none;fill:#081020;fill-opacity:0.9857651;fill-rule:nonzero;stroke:none;stroke-width:7.9375;stroke-linecap:round;stroke-linejoin:round;stroke-miterlimit:4;stroke-dasharray:none;stroke-dashoffset:0;stroke-opacity:1;color-rendering:auto;image-rendering:auto;shape-rendering:auto;text-rendering:auto;enable-background:accumulate"
       d="m 34.452164,222.91666 c -10.91239,0 -19.84375,8.93135 -19.84375,19.84375 0,10.91239 8.93136,19.84375 19.84375,19.84375 h 7.88117 l 4.02508,-3.96875 -4.02508,-3.96875 h -7.88117 c -6.62265,0 -11.90625,-5.2836 -11.90625,-11.90625 0,-6.62266 5.2836,-11.90625 11.90625,-11.90625 6.62265,0 11.90625,5.28359 11.90625,11.90625 v 15.875 7.93803 c 0,6.62265 -5.2836,11.90625 -11.90625,11.90625 -5.36704,-0.0759 -5.36704,8.01341 0,7.9375 10.81363,0 19.67688,-8.77166 19.83653,-19.5492 0.006,-0.0981 0.008,-0.19632 0.007,-0.29455 v -23.81303 c 0,-10.9124 -8.93135,-19.84375 -19.84375,-19.84375 z"
       id="path1356"
       inkscape:connector-curvature="0"
       sodipodi:nodetypes="csscccsssscsccccscc" />
    <path
       style="color:#000000;font-style:normal;font-variant:normal;font-weight:normal;font-stretch:normal;font-size:medium;line-height:normal;font-family:sans-serif;font-variant-ligatures:normal;font-variant-position:normal;font-variant-caps:normal;font-variant-numeric:normal;font-variant-alternates:normal;font-feature-settings:normal;text-indent:0;text-align:start;text-decoration:none;text-decoration-line:none;text-decoration-style:solid;text-decoration-color:#000000;letter-spacing:normal;word-spacing:normal;text-transform:none;writing-mode:lr-tb;direction:ltr;text-orientation:mixed;dominant-baseline:auto;baseline-shift:baseline;text-anchor:start;white-space:normal;shape-padding:0;clip-rule:nonzero;display:inline;overflow:visible;visibility:visible;opacity:1;isolation:auto;mix-blend-mode:normal;color-interpolation:sRGB;color-interpolation-filters:linearRGB;solid-color:#000000;solid-opacity:1;vector-effect:none;fill:#081020;fill-opacity:0.9857651;fill-rule:nonzero;stroke:none;stroke-width:7.9375;stroke-linecap:round;stroke-linejoin:round;stroke-miterlimit:4;stroke-dasharray:none;stroke-dashoffset:0;stroke-opacity:1;color-rendering:auto;image-rendering:auto;shape-rendering:auto;text-rendering:auto;enable-background:accumulate"
       d="m 187.98796,203.07473 a 3.9691469,3.9691469 0 0 0 -4.04687,3.9668 v 51.53711 a 3.9691469,3.9691469 0 1 0 7.9375,0 v -41.46876 l 11.65039,12.48438 a 3.9691469,3.9691469 0 0 0 5.80468,0 l 11.65039,-12.48438 v 41.46876 a 3.9691469,3.9691469 0 1 0 7.9375,0 v -51.53711 a 3.9691469,3.9691469 0 0 0 -6.87109,-2.70704 l -15.61914,16.73438 -15.61914,-16.73438 a 3.9691469,3.9691469 0 0 0 -2.82422,-1.25976 z"
       id="path1277"
       inkscape:connector-curvature="0" />
    <path
       style="color:#000000;font-style:normal;font-variant:normal;font-weight:normal;font-stretch:normal;font-size:medium;line-height:normal;font-family:sans-serif;font-variant-ligatures:normal;font-variant-position:normal;font-variant-caps:normal;font-variant-numeric:normal;font-variant-alternates:normal;font-feature-settings:normal;text-indent:0;text-align:start;text-decoration:none;text-decoration-line:none;text-decoration-style:solid;text-decoration-color:#000000;letter-spacing:normal;word-spacing:normal;text-transform:none;writing-mode:lr-tb;direction:ltr;text-orientation:mixed;dominant-baseline:auto;baseline-shift:baseline;text-anchor:start;white-space:normal;shape-padding:0;clip-rule:nonzero;display:inline;overflow:visible;visibility:visible;opacity:1;isolation:auto;mix-blend-mode:normal;color-interpolation:sRGB;color-interpolation-filters:linearRGB;solid-color:#000000;solid-opacity:1;vector-effect:none;fill:#081020;fill-opacity:0.9857651;fill-rule:nonzero;stroke:none;stroke-width:7.9375;stroke-linecap:round;stroke-linejoin:round;stroke-miterlimit:4;stroke-dasharray:none;stroke-dashoffset:0;stroke-opacity:1;color-rendering:auto;image-rendering:auto;shape-rendering:auto;text-rendering:auto;enable-background:accumulate"
       d="m 253.40261,222.91666 c -10.9124,0 -19.84375,8.93136 -19.84375,19.84375 0,10.91239 8.93135,19.84375 19.84375,19.84375 h 15.875 l 4.02508,-3.96875 -4.02508,-3.96875 h -15.875 c -6.62266,0 -11.90625,-5.2836 -11.90625,-11.90625 0,-6.62265 5.28359,-11.90625 11.90625,-11.90625 5.22756,0 9.6181,3.29344 11.23704,7.9375 h -13.88341 a 3.969147,3.969147 0 1 0 0,7.9375 h 18.52137 a 3.969147,3.969147 0 0 0 3.94962,-4.72012 c -0.39926,-10.56746 -9.16416,-19.09238 -19.82462,-19.09238 z"
       id="path1285"
       inkscape:connector-curvature="0" />
    <path
       style="color:#000000;font-style:normal;font-variant:normal;font-weight:normal;font-stretch:normal;font-size:medium;line-height:normal;font-family:sans-serif;font-variant-ligatures:normal;font-variant-position:normal;font-variant-caps:normal;font-variant-numeric:normal;font-variant-alternates:normal;font-feature-settings:normal;text-indent:0;text-align:start;text-decoration:none;text-decoration-line:none;text-decoration-style:solid;text-decoration-color:#000000;letter-spacing:normal;word-spacing:normal;text-transform:none;writing-mode:lr-tb;direction:ltr;text-orientation:mixed;dominant-baseline:auto;baseline-shift:baseline;text-anchor:start;white-space:normal;shape-padding:0;clip-rule:nonzero;display:inline;overflow:visible;visibility:visible;opacity:1;isolation:auto;mix-blend-mode:normal;color-interpolation:sRGB;color-interpolation-filters:linearRGB;solid-color:#000000;solid-opacity:1;vector-effect:none;fill:#081020;fill-opacity:0.9857651;fill-rule:nonzero;stroke:none;stroke-width:7.9375;stroke-linecap:round;stroke-linejoin:round;stroke-miterlimit:4;stroke-dasharray:none;stroke-dashoffset:0;stroke-opacity:1;color-rendering:auto;image-rendering:auto;shape-rendering:auto;text-rendering:auto;enable-background:accumulate"
       d="m 298.38178,222.91666 c -10.9124,0 -19.84375,8.93134 -19.84375,19.84375 0,10.91239 8.93135,19.84375 19.84375,19.84375 h 7.88117 l 4.02508,-3.96875 -4.02508,-3.96875 h -7.88117 c -6.62265,0 -11.90625,-5.2836 -11.90625,-11.90625 0,-6.62267 5.2836,-11.90625 11.90625,-11.90625 6.62265,0 11.90625,5.28358 11.90625,11.90625 v 15.875 7.9375 c 0,6.62265 -5.2836,11.90625 -11.90625,11.90625 a 3.969147,3.969147 0 1 0 0,7.9375 c 10.81397,0 19.67743,-8.77223 19.83653,-19.55023 a 3.969147,3.969147 0 0 0 0.007,-0.29352 v -23.8125 c 0,-10.91241 -8.93136,-19.84375 -19.84375,-19.84375 z"
       id="path1315"
       inkscape:connector-curvature="0" />
    <path
       style="color:#000000;font-style:normal;font-variant:normal;font-weight:normal;font-stretch:normal;font-size:medium;line-height:normal;font-family:sans-serif;font-variant-ligatures:normal;font-variant-position:normal;font-variant-caps:normal;font-variant-numeric:normal;font-variant-alternates:normal;font-feature-settings:normal;text-indent:0;text-align:start;text-decoration:none;text-decoration-line:none;text-decoration-style:solid;text-decoration-color:#000000;letter-spacing:normal;word-spacing:normal;text-transform:none;writing-mode:lr-tb;direction:ltr;text-orientation:mixed;dominant-baseline:auto;baseline-shift:baseline;text-anchor:start;white-space:normal;shape-padding:0;clip-rule:nonzero;display:inline;overflow:visible;visibility:visible;opacity:1;isolation:auto;mix-blend-mode:normal;color-interpolation:sRGB;color-interpolation-filters:linearRGB;solid-color:#000000;solid-opacity:1;vector-effect:none;fill:#081020;fill-opacity:0.9857651;fill-rule:nonzero;stroke:none;stroke-width:7.9375;stroke-linecap:round;stroke-linejoin:round;stroke-miterlimit:4;stroke-dasharray:none;stroke-dashoffset:0;stroke-opacity:1;color-rendering:auto;image-rendering:auto;shape-rendering:auto;text-rendering:auto;enable-background:accumulate"
       d="m 343.07517,222.91891 c -5.0646,0.0762 -10.02631,2.08725 -13.74539,5.80636 -5.66722,5.66721 -7.36968,14.22047 -4.30261,21.62504 3.06708,7.40457 10.31912,12.2499 18.33378,12.2499 h 7.9375 l 3.96875,-3.96875 -3.96875,-3.96875 h -7.9375 c -4.82703,0 -9.15263,-2.88984 -10.99984,-7.34943 -1.84722,-4.45959 -0.83355,-9.5617 2.57968,-12.97492 3.41321,-3.41322 8.51739,-4.42897 12.977,-2.58175 4.45958,1.84722 7.34941,6.17282 7.34941,10.99985 v 15.875 3.96875 h 7.9375 v -19.84375 c 0,-8.01465 -4.84534,-15.26515 -12.24989,-18.33222 -2.54532,-1.05431 -5.22674,-1.54523 -7.87964,-1.50533 z"
       id="path1376"
       inkscape:connector-curvature="0" />
    <path
       style="color:#000000;font-style:normal;font-variant:normal;font-weight:normal;font-stretch:normal;font-size:medium;line-height:normal;font-family:sans-serif;font-variant-ligatures:normal;font-variant-position:normal;font-variant-caps:normal;font-variant-numeric:normal;font-variant-alternates:normal;font-feature-settings:normal;text-indent:0;text-align:start;text-decoration:none;text-decoration-line:none;text-decoration-style:solid;text-decoration-color:#000000;letter-spacing:normal;word-spacing:normal;text-transform:none;writing-mode:lr-tb;direction:ltr;text-orientation:mixed;dominant-baseline:auto;baseline-shift:baseline;text-anchor:start;white-space:normal;shape-padding:0;clip-rule:nonzero;display:inline;overflow:visible;visibility:visible;opacity:1;isolation:auto;mix-blend-mode:normal;color-interpolation:sRGB;color-interpolation-filters:linearRGB;solid-color:#000000;solid-opacity:1;vector-effect:none;fill:#081020;fill-opacity:0.9857651;fill-rule:nonzero;stroke:none;stroke-width:7.9375;stroke-linecap:round;stroke-linejoin:round;stroke-miterlimit:4;stroke-dasharray:none;stroke-dashoffset:0;stroke-opacity:1;color-rendering:auto;image-rendering:auto;shape-rendering:auto;text-rendering:auto;enable-background:accumulate"
       d="m 79.431654,222.91666 c -10.81466,0 -19.67852,8.77334 -19.83653,19.55229 -0.006,0.097 -0.008,0.19425 -0.007,0.29146 v 15.875 c -0.0313,2.21383 1.75469,4.02527 3.96875,4.02527 2.21406,0 4.00005,-1.81144 3.96875,-4.02527 v -15.875 c 0,-6.62265 5.28359,-11.90625 11.90625,-11.90625 h 5.29166 v -7.9375 z"
       id="path1389"
       inkscape:connector-curvature="0"
       sodipodi:nodetypes="scccscssccs" />
    <path
       style="color:#000000;font-style:normal;font-variant:normal;font-weight:normal;font-stretch:normal;font-size:medium;line-height:normal;font-family:sans-serif;font-variant-ligatures:normal;font-variant-position:normal;font-variant-caps:normal;font-variant-numeric:normal;font-variant-alternates:normal;font-feature-settings:normal;text-indent:0;text-align:start;text-decoration:none;text-decoration-line:none;text-decoration-style:solid;text-decoration-color:#000000;letter-spacing:normal;word-spacing:normal;text-transform:none;writing-mode:lr-tb;direction:ltr;text-orientation:mixed;dominant-baseline:auto;baseline-shift:baseline;text-anchor:start;white-space:normal;shape-padding:0;clip-rule:nonzero;display:inline;overflow:visible;visibility:visible;opacity:1;isolation:auto;mix-blend-mode:normal;color-interpolation:sRGB;color-interpolation-filters:linearRGB;solid-color:#000000;solid-opacity:1;vector-effect:none;fill:#081020;fill-opacity:0.9857651;fill-rule:nonzero;stroke:none;stroke-width:7.9375;stroke-linecap:round;stroke-linejoin:round;stroke-miterlimit:4;stroke-dasharray:none;stroke-dashoffset:0;stroke-opacity:1;color-rendering:auto;image-rendering:auto;shape-rendering:auto;text-rendering:auto;enable-background:accumulate"
       d="m 91.337584,203.07291 -3.96875,3.96926 v 35.71824 c 0,8.01465 4.84535,15.26669 12.2499,18.33376 7.404566,3.06707 15.957836,1.3667 21.625026,-4.30051 5.66721,-5.66721 7.36967,-14.22254 4.3026,-21.6271 -3.06708,-7.40459 -10.31912,-12.2499 -18.33378,-12.2499 h -9.259876 v 7.9375 h 9.259876 c 4.82704,0 9.15263,2.88982 10.99985,7.34942 1.84721,4.45959 0.83354,9.56324 -2.57969,12.97647 -3.41321,3.41322 -8.51739,4.42742 -12.97699,2.5802 -4.459576,-1.84723 -7.349416,-6.17282 -7.349416,-10.99984 v -35.71824 z"
       id="path1402"
       inkscape:connector-curvature="0" />
    <path
       style="color:#000000;font-style:normal;font-variant:normal;font-weight:normal;font-stretch:normal;font-size:medium;line-height:normal;font-family:sans-serif;font-variant-ligatures:normal;font-variant-position:normal;font-variant-caps:normal;font-variant-numeric:normal;font-variant-alternates:normal;font-feature-settings:normal;text-indent:0;text-align:start;text-decoration:none;text-decoration-line:none;text-decoration-style:solid;text-decoration-color:#000000;letter-spacing:normal;word-spacing:normal;text-transform:none;writing-mode:lr-tb;direction:ltr;text-orientation:mixed;dominant-baseline:auto;baseline-shift:baseline;text-anchor:start;white-space:normal;shape-padding:0;clip-rule:nonzero;display:inline;overflow:visible;visibility:visible;opacity:1;isolation:auto;mix-blend-mode:normal;color-interpolation:sRGB;color-interpolation-filters:linearRGB;solid-color:#000000;solid-opacity:1;vector-effect:none;fill:#081020;fill-opacity:0.9857651;fill-rule:nonzero;stroke:none;stroke-width:7.9375;stroke-linecap:butt;stroke-linejoin:round;stroke-miterlimit:4;stroke-dasharray:none;stroke-dashoffset:0;stroke-opacity:1;color-rendering:auto;image-rendering:auto;shape-rendering:auto;text-rendering:auto;enable-background:accumulate"
       d="m 134.93374,203.01813 a 3.969147,3.969147 0 0 0 -3.90829,4.02353 v 35.71875 c 0,5.26136 2.09222,10.3129 5.81258,14.03325 3.72033,3.72035 8.7698,5.8105 14.03117,5.8105 l 3.96875,-3.96824 -3.96875,-3.96875 v -5.1e-4 c -3.15926,0 -6.18622,-1.25268 -8.42015,-3.48661 -2.23396,-2.23394 -3.4861,-5.26039 -3.4861,-8.41964 v -35.71875 a 3.969147,3.969147 0 0 0 -4.02921,-4.02353 z"
       id="path1415"
       inkscape:connector-curvature="0" />
    <path
       style="color:#000000;font-style:normal;font-variant:normal;font-weight:normal;font-stretch:normal;font-size:medium;line-height:normal;font-family:sans-serif;font-variant-ligatures:normal;font-variant-position:normal;font-variant-caps:normal;font-variant-numeric:normal;font-variant-alternates:normal;font-feature-settings:normal;text-indent:0;text-align:start;text-decoration:none;text-decoration-line:none;text-decoration-style:solid;text-decoration-color:#000000;letter-spacing:normal;word-spacing:normal;text-transform:none;writing-mode:lr-tb;direction:ltr;text-orientation:mixed;dominant-baseline:auto;baseline-shift:baseline;text-anchor:start;white-space:normal;shape-padding:0;clip-rule:nonzero;display:inline;overflow:visible;visibility:visible;opacity:1;isolation:auto;mix-blend-mode:normal;color-interpolation:sRGB;color-interpolation-filters:linearRGB;solid-color:#000000;solid-opacity:1;vector-effect:none;fill:#081020;fill-opacity:0.9857651;fill-rule:nonzero;stroke:none;stroke-width:7.9375;stroke-linecap:round;stroke-linejoin:miter;stroke-miterlimit:4;stroke-dasharray:none;stroke-dashoffset:0;stroke-opacity:1;color-rendering:auto;image-rendering:auto;shape-rendering:auto;text-rendering:auto;enable-background:accumulate"
       d="m 162.77507,238.79153 a 3.9691469,3.9691469 0 1 0 0,7.9375 h 10.58398 a 3.9691469,3.9691469 0 1 0 0,-7.9375 z"
       id="path1433"
       inkscape:connector-curvature="0" />
    <path
       style="color:#000000;font-style:normal;font-variant:normal;font-weight:normal;font-stretch:normal;font-size:medium;line-height:normal;font-family:sans-serif;font-variant-ligatures:normal;font-variant-position:normal;font-variant-caps:normal;font-variant-numeric:normal;font-variant-alternates:normal;font-feature-settings:normal;text-indent:0;text-align:start;text-decoration:none;text-decoration-line:none;text-decoration-style:solid;text-decoration-color:#000000;letter-spacing:normal;word-spacing:normal;text-transform:none;writing-mode:lr-tb;direction:ltr;text-orientation:mixed;dominant-baseline:auto;baseline-shift:baseline;text-anchor:start;white-space:normal;shape-padding:0;clip-rule:nonzero;display:inline;overflow:visible;visibility:visible;opacity:1;isolation:auto;mix-blend-mode:normal;color-interpolation:sRGB;color-interpolation-filters:linearRGB;solid-color:#000000;solid-opacity:1;vector-effect:none;fill:#081020;fill-opacity:0.9857651;fill-rule:nonzero;stroke:none;stroke-width:7.9375;stroke-linecap:round;stroke-linejoin:miter;stroke-miterlimit:4;stroke-dasharray:none;stroke-dashoffset:0;stroke-opacity:1;color-rendering:auto;image-rendering:auto;shape-rendering:auto;text-rendering:auto;enable-background:accumulate"
       d="m 374.44109,238.79153 a 3.9691469,3.9691469 0 1 0 0,7.9375 h 10.58398 a 3.9691469,3.9691469 0 1 0 0,-7.9375 z"
       id="path1435"
       inkscape:connector-curvature="0" />
    <g
       id="g1510"
       style="fill:url(#linearGradient1518);fill-opacity:1">
      <path
         inkscape:connector-curvature="0"
         id="path1437"
         d="m 395.60841,203.06781 v 27.78125 h 19.67117 a 3.969147,3.969147 0 0 0 0.17671,0.004 c 4.82703,0 9.15263,2.89035 10.99984,7.34994 1.84724,4.45959 0.83095,9.56325 -2.58225,12.97647 -3.41323,3.41323 -8.51482,4.42743 -12.9744,2.58021 -4.45961,-1.84722 -7.34944,-6.17334 -7.34944,-11.00037 a 3.969147,3.969147 0 1 0 -7.9375,0 c 0,8.01465 4.84534,15.26721 12.24992,18.33429 1.85113,0.76676 3.77333,1.23475 5.70508,1.418 5.79519,0.54973 11.66953,-1.47069 15.91995,-5.7211 5.66722,-5.66721 7.36759,-14.21995 4.30051,-21.62452 -3.06707,-7.40457 -10.31705,-12.25042 -18.33171,-12.25042 a 3.969147,3.969147 0 0 0 -0.004,0 v -0.004 h -11.90625 v -11.90625 l 23.81251,5.1e-4 3.96875,-3.96926 -3.96875,-3.96824 z"
         style="color:#000000;font-style:normal;font-variant:normal;font-weight:normal;font-stretch:normal;font-size:medium;line-height:normal;font-family:sans-serif;font-variant-ligatures:normal;font-variant-position:normal;font-variant-caps:normal;font-variant-numeric:normal;font-variant-alternates:normal;font-feature-settings:normal;text-indent:0;text-align:start;text-decoration:none;text-decoration-line:none;text-decoration-style:solid;text-decoration-color:#000000;letter-spacing:normal;word-spacing:normal;text-transform:none;writing-mode:lr-tb;direction:ltr;text-orientation:mixed;dominant-baseline:auto;baseline-shift:baseline;text-anchor:start;white-space:normal;shape-padding:0;clip-rule:nonzero;display:inline;overflow:visible;visibility:visible;opacity:1;isolation:auto;mix-blend-mode:normal;color-interpolation:sRGB;color-interpolation-filters:linearRGB;solid-color:#000000;solid-opacity:1;vector-effect:none;fill:url(#linearGradient1518);fill-opacity:1;fill-rule:nonzero;stroke:none;stroke-width:7.9375;stroke-linecap:round;stroke-linejoin:round;stroke-miterlimit:4;stroke-dasharray:none;stroke-dashoffset:0;stroke-opacity:1;color-rendering:auto;image-rendering:auto;shape-rendering:auto;text-rendering:auto;enable-background:accumulate" />
      <path
         inkscape:connector-curvature="0"
         id="path1446"
         d="m 442.38902,203.02889 a 3.969147,3.7168391 0 0 0 -3.25819,5.82151 l 17.05272,23.95331 -17.05272,23.95475 a 3.969147,3.7168391 0 1 0 6.60374,4.12248 l 15.21923,-21.37694 15.21817,21.37694 a 3.969147,3.7168391 0 1 0 6.60374,-4.12248 l -17.05272,-23.9533 17.05272,-23.95476 0.66714,-0.93687 v -4.84011 h -6.09317 l -1.17771,1.6545 -15.21923,21.37695 -15.21817,-21.37695 a 3.969147,3.7168391 0 0 0 -3.34555,-1.69903 z"
         style="color:#000000;font-style:normal;font-variant:normal;font-weight:normal;font-stretch:normal;font-size:medium;line-height:normal;font-family:sans-serif;font-variant-ligatures:normal;font-variant-position:normal;font-variant-caps:normal;font-variant-numeric:normal;font-variant-alternates:normal;font-feature-settings:normal;text-indent:0;text-align:start;text-decoration:none;text-decoration-line:none;text-decoration-style:solid;text-decoration-color:#000000;letter-spacing:normal;word-spacing:normal;text-transform:none;writing-mode:lr-tb;direction:ltr;text-orientation:mixed;dominant-baseline:auto;baseline-shift:baseline;text-anchor:start;white-space:normal;shape-padding:0;clip-rule:nonzero;display:inline;overflow:visible;visibility:visible;opacity:1;isolation:auto;mix-blend-mode:normal;color-interpolation:sRGB;color-interpolation-filters:linearRGB;solid-color:#000000;solid-opacity:1;vector-effect:none;fill:url(#linearGradient1518);fill-opacity:1;fill-rule:nonzero;stroke:none;stroke-width:7.9375;stroke-linecap:round;stroke-linejoin:miter;stroke-miterlimit:4;stroke-dasharray:none;stroke-dashoffset:0;stroke-opacity:1;color-rendering:auto;image-rendering:auto;shape-rendering:auto;text-rendering:auto;enable-background:accumulate" />
    </g>
  </g>
</svg>
